# xmcd
#
# Track frame offsets: 
#        150
#        12880
#        29007
#        42267
#        58435
#        70825
#        85542
#        102917
#        118242
#        129397
#
# Disc length: 1929 seconds
#
# Revision: 0
# Processed by: cddbd v1.5.1PL2 Copyright (c) Steve Scherf et al.
# Submitted via: ExactAudioCopy v0.95b3
#
DISCID=8707870a
DTITLE=Various Artist - First USA Country's Great Love Songs
DYEAR=1998
DGENRE=
TTITLE0=Mark Chestnutt - Your Love is a Miracle
TTITLE1=George Strait - Baby Blue
TTITLE2=Dolly Parton - I will always love you
TTITLE3=Randy Travis - Forever and Ever, Amen
TTITLE4=Patsy Cline - Crazy
TTITLE5=Merle Haggard - If we're not back in love by monday
TTITLE6=The Mavericks - What a crying shame
TTITLE7=Vince Gill - You and You alone
TTITLE8=Patty Loveless - A little bit in Love
TTITLE9=Tracy Byrd - Heaven in my woman's eyes
EXTD=
EXTT0=
EXTT1=
EXTT2=
EXTT3=
EXTT4=
EXTT5=
EXTT6=
EXTT7=
EXTT8=
EXTT9=
PLAYORDER=
